<?xml version="1.0" encoding="utf-8"?>
<!-- Generator: Adobe Illustrator 23.0.1, SVG Export Plug-In . SVG Version: 6.00 Build 0)  -->
<svg version="1.1" id="Layer_1" xmlns="http://www.w3.org/2000/svg" xmlns:xlink="http://www.w3.org/1999/xlink" x="0px" y="0px"
	 viewBox="0 0 832.37 362.7" style="enable-background:new 0 0 832.37 362.7;" xml:space="preserve">
<style type="text/css">
	.st0{fill:#FFFFFF;}
</style>
<polygon class="st0" points="156.7,362.7 3.31,228.88 3.31,40.06 158.69,88.99 253.7,219.43 320.36,46.82 160.77,16.75 
	160.77,54.03 149.99,54.03 149.99,3.75 335.08,38.63 256.64,241.76 152.07,98.21 14.09,54.76 14.09,223.98 146.59,339.57 
	149.99,222.26 160.77,222.57 "/>
<rect x="323.5" y="273.83" class="st0" width="14.79" height="14.79"/>
<path class="st0" d="M423.35,183.92v-42.03c0-6.91-3.69-8.93-7.74-8.93c-4.05,0-8.09,2.02-12.38,6.55v44.41H388.7v-40.96
	c0-6.19-2.03-10-7.38-10c-3.93,0-8.21,2.14-12.86,7.02v43.93h-14.41v-61.79h13.33v7.5c5.6-5.59,12.38-9.05,18.7-9.05
	c7.74,0,12.38,2.86,15,9.52c6.67-6.31,12.5-9.52,20-9.52c10.6,0,16.67,5.71,16.67,19.41v43.93H423.35z"/>
<path class="st0" d="M464.52,146.06H490c0-8.81-4.64-14.52-12.38-14.52C469.88,131.53,465.71,137.72,464.52,146.06 M477.14,185.35
	c-17.98,0-27.03-13.57-27.03-32.74c0-19.65,11.19-32.02,27.38-32.02c17.62,0,26.43,12.14,26.43,31.19c0,0.95,0,2.15-0.12,3.93
	h-39.53c0.59,11.07,4.29,18.1,13.93,18.1c6.55,0,11.07-2.98,14.52-9.65l10.95,5.6C497.15,181.54,487.74,185.35,477.14,185.35"/>
<path class="st0" d="M554.16,139.39c-3.09-4.17-7.5-6.55-12.38-6.55c-9.05,0-13.93,7.86-13.93,20.95c0,12.38,5.24,19.53,13.69,19.53
	c4.64,0,9.53-2.62,12.62-6.9V139.39z M557.49,183.92l-1.9-6.79c-5.72,5.24-11.07,8.21-19.05,8.21c-14.88,0-23.46-12.74-23.46-31.67
	c0-19.88,9.76-32.62,25.12-32.62c6.07,0,11.55,2.26,15.95,6.55V98.43h14.52v85.49H557.49z"/>
<path class="st0" d="M585.34,122h14.41v61.91h-14.41V122z M584.98,97.6h15.24v14.52h-15.24V97.6z"/>
<path class="st0" d="M648.79,152.48c-8.69,1.79-13.33,2.97-17.26,5.12c-3.09,1.78-4.64,4.88-4.64,8.69c0,4.88,2.98,7.74,7.74,7.74
	c5.12,0,10.48-2.5,14.17-6.67V152.48z M650.34,183.92l-1.07-6.91c-5.95,5-12.74,8.1-20.36,8.1c-10.36,0-16.79-6.43-16.79-16.79
	c0-7.98,3.45-13.33,10.24-17.14c6.19-3.46,15.71-5.72,26.91-7.86c0.71-8.34-2.14-11.79-10.12-11.79c-6.31,0-10.48,2.62-13.93,8.1
	l-10.36-6.43c5.48-9.17,14.17-12.62,25.24-12.62c15.95,0,23.34,7.02,23.34,21.67v30.48l1.07,11.19H650.34z"/>
<rect x="679.49" y="98.43" class="st0" width="14.41" height="85.49"/>
<path class="st0" d="M742.94,152.48c-8.69,1.79-13.33,2.97-17.26,5.12c-3.09,1.78-4.65,4.88-4.65,8.69c0,4.88,2.98,7.74,7.74,7.74
	c5.12,0,10.48-2.5,14.17-6.67V152.48z M744.49,183.92l-1.07-6.91c-5.95,5-12.74,8.1-20.36,8.1c-10.36,0-16.79-6.43-16.79-16.79
	c0-7.98,3.45-13.33,10.24-17.14c6.19-3.46,15.71-5.72,26.91-7.86c0.71-8.34-2.14-11.79-10.12-11.79c-6.31,0-10.48,2.62-13.93,8.1
	l-10.36-6.43c5.48-9.17,14.17-12.62,25.24-12.62c15.95,0,23.34,7.02,23.34,21.67v30.48l1.07,11.19H744.49z"/>
<path class="st0" d="M788.05,166.77c2.86,4.04,7.74,6.55,12.62,6.55c8.81,0,13.81-7.74,13.81-20.83c0-12.38-5.35-19.64-13.81-19.64
	c-4.64,0-9.17,2.5-12.62,6.91V166.77z M773.65,183.92V98.43h14.41v29.89c5.48-5.12,10.83-7.26,16.91-7.26
	c14.76,0,24.29,12.26,24.29,32.02c0,18.93-8.33,32.27-24.17,32.27c-7.86,0-12.62-2.62-18.33-8.21l-2.03,6.79H773.65z"/>
<path class="st0" d="M368.46,272.56c2.86,4.04,7.74,6.55,12.62,6.55c8.81,0,13.81-7.74,13.81-20.83c0-12.38-5.35-19.65-13.81-19.65
	c-4.64,0-9.17,2.5-12.62,6.91V272.56z M354.06,289.7v-85.49h14.41v29.89c5.48-5.12,10.83-7.26,16.91-7.26
	c14.76,0,24.29,12.26,24.29,32.02c0,18.93-8.33,32.27-24.17,32.27c-7.86,0-12.62-2.62-18.33-8.21l-2.03,6.79H354.06z"/>
<path class="st0" d="M422.74,289.7v-61.91h13.33v11.31c4.41-8.33,10.12-12.74,17.86-12.74c0.71,0,1.07,0,1.9,0.12v13.57
	c-1.07-0.12-1.78-0.12-2.26-0.12c-7.26,0-12.5,4.76-16.43,12.15v37.62H422.74z"/>
<path class="st0" d="M502.74,289.7v-7.62c-6.67,6.07-12.74,9.05-20.12,9.05c-6.91,0-12.14-2.74-14.77-7.62
	c-1.9-3.1-2.62-7.14-2.62-14.76v-40.96h14.64v41.07c0,6.79,2.74,9.88,8.33,9.88c4.17,0,8.1-1.79,13.45-6.91v-44.05h14.41v61.91
	H502.74z"/>
<path class="st0" d="M564.28,244.22c-3.57-5.36-7.5-7.02-12.62-7.02c-5.24,0-8.33,2.5-8.33,6.67c0,11.91,32.98,3.93,32.98,27.98
	c0,12.38-9.77,19.29-24.17,19.29c-11.79,0-18.69-3.81-24.88-12.5l10.36-7.14c4.29,6.07,7.62,8.81,14.64,8.81c6.43,0,10-2.86,10-7.38
	c0-13.21-32.74-4.4-32.74-28.21c0-10.96,9.17-18.34,22.14-18.34c10.47,0,17.62,3.21,22.62,11.67L564.28,244.22z"/>
<path class="st0" d="M619.86,244.22c-3.57-5.36-7.5-7.02-12.62-7.02c-5.24,0-8.34,2.5-8.34,6.67c0,11.91,32.98,3.93,32.98,27.98
	c0,12.38-9.77,19.29-24.17,19.29c-11.79,0-18.69-3.81-24.88-12.5l10.36-7.14c4.29,6.07,7.62,8.81,14.64,8.81c6.43,0,10-2.86,10-7.38
	c0-13.21-32.74-4.4-32.74-28.21c0-10.96,9.17-18.34,22.14-18.34c10.47,0,17.62,3.21,22.62,11.67L619.86,244.22z"/>
<path class="st0" d="M654.73,251.84h25.48c0-8.81-4.64-14.52-12.38-14.52C660.09,237.31,655.92,243.5,654.73,251.84 M667.35,291.13
	c-17.98,0-27.03-13.57-27.03-32.74c0-19.65,11.19-32.02,27.38-32.02c17.62,0,26.43,12.14,26.43,31.19c0,0.95,0,2.15-0.12,3.93
	h-39.53c0.59,11.07,4.29,18.1,13.93,18.1c6.55,0,11.07-2.98,14.52-9.65l10.95,5.6C687.36,287.32,677.95,291.13,667.35,291.13"/>
<rect x="706.87" y="204.21" class="st0" width="14.41" height="85.49"/>
<path class="st0" d="M769.48,244.22c-3.57-5.36-7.5-7.02-12.62-7.02c-5.24,0-8.34,2.5-8.34,6.67c0,11.91,32.98,3.93,32.98,27.98
	c0,12.38-9.77,19.29-24.17,19.29c-11.79,0-18.69-3.81-24.88-12.5l10.36-7.14c4.29,6.07,7.62,8.81,14.64,8.81c6.43,0,10-2.86,10-7.38
	c0-13.21-32.74-4.4-32.74-28.21c0-10.96,9.17-18.34,22.14-18.34c10.47,0,17.62,3.21,22.62,11.67L769.48,244.22z"/>
</svg>
